<?xml version="1.0" encoding="UTF-8"?> <svg xmlns="http://www.w3.org/2000/svg" width="737" height="827" viewBox="0 0 737 827" fill="none"><path d="M301.546 514.801C299.946 514.801 279.546 530.467 269.546 538.301C278.546 546.801 316.046 610.301 318.046 610.801C320.046 611.301 349.046 591.301 350.546 590.301C352.046 589.301 303.546 514.801 301.546 514.801Z" fill="#222B78"></path><path d="M361.546 583.301C363.146 582.501 385.713 566.301 396.046 558.801L374.046 520.301L444.546 534.801L486.046 510.801L426.546 492.301L442.546 475.301L519.046 497.801L557.546 478.301L504.046 451.301C526.846 425.301 509.546 391.967 498.546 379.301L463.546 402.301C477.546 429.101 478.546 439.801 477.046 442.301C463.846 455.501 453.046 458.801 442.546 465.301C443.046 433.301 417.046 434.301 404.046 442.301L359.546 471.301L372.546 486.301L384.626 478.147C389.859 474.615 395.789 471.189 402.038 472.084C411.589 473.453 408.462 483.146 404.046 486.301C400.546 488.801 377.879 502.801 365.546 510.301C359.713 501.301 347.746 483.201 346.546 482.801C345.346 482.401 323.713 497.301 313.046 504.801C318.046 511.801 359.546 584.301 361.546 583.301Z" fill="#222B78"></path><path d="M499.046 25.8007C514.246 71.4007 415.046 145.301 366.046 179.801L303.546 21.3007C368.046 5.8007 483.846 -19.7993 499.046 25.8007Z" fill="#2B2D77"></path><path d="M583.449 205.801C612.649 137.001 554.949 53.8007 522.449 20.8007C529.249 82.0007 469.449 129.301 436.449 163.801C347.449 234.301 199.749 322.001 134.949 422.801C53.9494 548.801 95.546 616.801 100.546 628.301C104.046 634.801 119.949 673.801 195.949 688.801C250.949 696.801 285.546 692.801 346.949 670.801C433.949 638.301 490.949 590.301 506.449 567.801L505.979 568.122C437.139 615.147 294.04 712.899 167.386 656.173C158.791 652.323 151.12 645.465 150.575 636.064C146.591 567.419 322.207 417.914 427.949 351.301C465.449 325.531 554.249 274.601 583.449 205.801Z" fill="#10BBE6"></path><path d="M515.546 374.301L570.046 468.801C635.246 455.201 688.879 470.801 707.546 480.301C678.746 604.701 504.213 703.134 420.546 738.301C363.879 760.801 260.546 798.201 164.546 782.801C65.0515 766.84 35.7173 718.037 24.0263 696.025C20.5647 689.508 17.5636 682.593 16.2909 675.324C13.6287 660.119 12.7647 644.981 12.5847 632.321C12.5413 629.271 10.0726 626.801 7.02157 626.801C4.41228 626.801 2.14285 628.62 1.72521 631.195C0.340885 639.733 -1.34417 657.19 2.54604 682.801C7.34604 714.401 23.046 739.801 44.046 760.801C72.546 788.301 144.046 832.834 256.546 825.801C386.546 818.043 457.546 782.145 541.546 735.301C659.046 663.213 699.76 585.301 716.546 547.801C740.046 495.301 759.046 382.901 679.046 363.301C599.046 343.701 536.713 362.467 515.546 374.301Z" fill="#292E75"></path><path d="M257.546 548.801C261.946 551.601 292.713 597.634 307.546 620.301C305.112 622.248 275.177 639.842 274.533 641.225C274.565 641.287 274.57 641.313 274.546 641.301C274.52 641.288 274.516 641.262 274.533 641.225C273.225 638.682 226.034 575.277 225.546 574.301C225.146 573.501 246.713 556.967 257.546 548.801Z" fill="#222B78"></path></svg> 